<?xml version="1.0" standalone="no"?>
<!DOCTYPE svg PUBLIC "-//W3C//DTD SVG 1.1//EN" "http://www.w3.org/Graphics/SVG/1.1/DTD/svg11.dtd" >
<svg xmlns="http://www.w3.org/2000/svg">
<metadata></metadata>
<defs>
<font id="kenney_spaceregular" horiz-adv-x="2457" >
<font-face units-per-em="2048" ascent="2048" descent="0" />
<missing-glyph horiz-adv-x="819" />
<glyph horiz-adv-x="0" />
<glyph horiz-adv-x="682" />
<glyph unicode=" "  horiz-adv-x="819" />
<glyph unicode="&#x09;" horiz-adv-x="819" />
<glyph unicode="&#xa0;" horiz-adv-x="819" />
<glyph unicode="!" horiz-adv-x="819" d="M0 0v410h410v-410h-410zM0 819v2048h410v-2048h-410z" />
<glyph unicode="&#x22;" horiz-adv-x="1638" d="M0 2048v819h410v-819h-410zM819 2048v819h409v-819h-409z" />
<glyph unicode="#" d="M0 819v409h410v410h-410v410h410v819h409v-819h409v819h410v-819h410v-410h-410v-410h410v-409h-410v-819h-410v819h-409v-819h-409v819h-410zM819 1228h409v410h-409v-410z" />
<glyph unicode="$" d="M0 0v410h819v818h-409q-170 0 -290 120t-120 290v1229h2048v-409h-820v-820h410q170 0 290 -120t120 -290v-1228h-2048zM410 1638h409v820h-409v-820zM1228 410h410v818h-410v-818z" />
<glyph unicode="%" d="M0 0v819l1638 1639v409h410v-819l-1638 -1638v-410h-410zM0 2048v819h819v-819h-819zM1228 0v819h820v-819h-820z" />
<glyph unicode="&#x26;" d="M0 819v409h2l202 206l-204 204v410q0 170 120 290t290 120h409v409h409v-409h410q170 0 290 -120t120 -290v-410h-410v410h-1228v-410h818v-410h-818v-409h1228v409h410v-409q0 -169 -120 -289t-290 -120h-410v-410h-409v410h-409q-170 0 -290 120t-120 289z" />
<glyph unicode="'" horiz-adv-x="819" d="M0 2048v819h410v-819h-410z" />
<glyph unicode="(" horiz-adv-x="1228" d="M0 410v2048q0 170 120 289q120 120 290 120h409v-409h-409v-2048h409v-410h-409q-170 0 -290 120t-120 290z" />
<glyph unicode=")" horiz-adv-x="1228" d="M0 0v410h410v2048h-410v409h410q170 0 289 -120q120 -119 120 -289v-2048q0 -170 -120 -290q-119 -120 -289 -120h-410z" />
<glyph unicode="*" horiz-adv-x="1638" d="M0 2048v410h410v-410h-410zM410 1638v410h409v-410h-409zM410 2458v409h409v-409h-409zM819 2048v410h409v-410h-409z" />
<glyph unicode="+" d="M0 819v409h819v820h409v-820h820v-409h-820v-819h-409v819h-819z" />
<glyph unicode="," horiz-adv-x="819" d="M0 -410v820h410v-410q0 -170 -120 -290t-290 -120z" />
<glyph unicode="-" d="M0 819v409h2048v-409h-2048z" />
<glyph unicode="." horiz-adv-x="819" d="M0 0v410h410v-410h-410z" />
<glyph unicode="/" horiz-adv-x="1638" d="M0 0v819h410v-819h-410zM410 819v819h409v-819h-409zM819 1638v820h409v-820h-409z" />
<glyph unicode="0" d="M0 410v1228q0 170 120 290t290 120h1228q170 0 290 -120t120 -290v-1228q0 -170 -120 -290t-290 -120h-1228q-170 0 -290 120t-120 290zM410 410h1228v1228h-1228v-1228z" />
<glyph unicode="1" horiz-adv-x="1228" d="M0 1638v410h819v-2048h-409v1638h-410z" />
<glyph unicode="2" d="M0 0v819q0 169 120 289t290 120h1228v410h-1638v410h2048v-820q0 -170 -120 -289q-120 -120 -290 -120h-1228v-409h1638v-410h-2048z" />
<glyph unicode="3" d="M0 0v410h1638v1228h-1638v410h1638q170 0 290 -120t120 -290v-1228q0 -170 -120 -290t-290 -120h-1638zM0 819v409h1228l206 -204l-206 -205h-1228z" />
<glyph unicode="4" d="M0 1228v820h410v-820h1228v820h410v-2048h-410v819h-1228q-170 0 -290 120q-120 119 -120 289z" />
<glyph unicode="5" d="M0 0v410h1638v409h-1228q-170 0 -290 120q-120 119 -120 289v820h2048v-410h-1638v-410h1228q170 0 290 -120t120 -289v-819h-2048z" />
<glyph unicode="6" d="M0 410v1638h410v-820h1228q170 0 290 -120t120 -289v-409q0 -170 -120 -290t-290 -120h-1228q-170 0 -290 120t-120 290zM410 410h1228v409h-1228v-409z" />
<glyph unicode="7" d="M0 1638v410h2048v-2048h-410v1638h-1638z" />
<glyph unicode="8" d="M0 410v409h2l202 205l-204 204v410q0 170 120 290t290 120h1228q170 0 290 -120t120 -290v-410h-2l-203 -204l205 -205v-409q0 -170 -120 -290t-290 -120h-1228q-170 0 -290 120t-120 290zM410 410h1228v409h-1228v-409zM410 1228h1228v410h-1228v-410z" />
<glyph unicode="9" d="M0 1228v410q0 170 120 290t290 120h1638v-2048h-410v819h-1228q-170 0 -290 120q-120 119 -120 289zM410 1228h1228v410h-1228v-410z" />
<glyph unicode=":" horiz-adv-x="819" d="M0 0v410h410v-410h-410zM0 2048v410h410v-410h-410z" />
<glyph unicode=";" horiz-adv-x="819" d="M0 -410v820h410v-410q0 -170 -120 -290t-290 -120zM0 2048v410h410v-410h-410z" />
<glyph unicode="&#x3c;" horiz-adv-x="1638" d="M0 1228v410l819 820h409v-410l-409 -410h-1l-204 -204l614 -615v-409h-409z" />
<glyph unicode="=" d="M0 819v409h2048v-409h-2048zM0 1638v410h2048v-410h-2048z" />
<glyph unicode="&#x3e;" horiz-adv-x="1638" d="M0 410v409l410 409h1l203 206l-614 614v410h410l818 -820v-410l-818 -818h-410z" />
<glyph unicode="?" d="M0 2458v409h1638q170 0 290 -120q120 -119 120 -289v-820q0 -170 -120 -290t-290 -120h-410v-409h-409v409q0 170 120 290q119 120 289 120h410v820h-1638zM819 0v410h409v-410h-409z" />
<glyph unicode="@" d="M0 410v2048q0 170 120 289q120 120 290 120h1228q170 0 290 -120q120 -119 120 -289v-1230q0 -170 -120 -289q-120 -120 -290 -120h-410q-170 0 -289 120q-120 119 -120 289v820h409v-820h410v1230h-1228v-2048h1638v-410h-1638q-170 0 -290 120t-120 290z" />
<glyph unicode="A" d="M0 0v2458q0 170 120 289q120 120 290 120h1228q170 0 290 -120q120 -119 120 -289v-2458h-410v2458h-1228v-820h818l206 -204l-206 -206h-818v-1228h-410z" />
<glyph unicode="B" d="M0 0v2867h1638q170 0 290 -120q120 -119 120 -289v-820h-2l-203 -204l205 -206v-818q0 -170 -120 -290t-290 -120h-1638zM410 410h1228v2048h-1228v-820h818l206 -204l-206 -206h-818v-818z" />
<glyph unicode="C" d="M0 410v2048q0 170 120 289q120 120 290 120h1638v-409h-1638v-2048h1638v-410h-1638q-170 0 -290 120t-120 290z" />
<glyph unicode="D" d="M0 0v2867h1638q170 0 290 -120q120 -119 120 -289v-2048q0 -170 -120 -290t-290 -120h-819l-205 204l205 206h819v2048h-1228v-2458h-410z" />
<glyph unicode="E" d="M0 0v2867h2048v-409h-1638v-2048h1638v-410h-2048zM614 1434l205 204h1229v-410h-1229z" />
<glyph unicode="F" d="M0 0v2458q0 170 120 289q120 120 290 120h1638v-409h-1638v-2458h-410zM614 1434l205 204h1229v-410h-1229z" />
<glyph unicode="G" d="M0 410v2048q0 170 120 289q120 120 290 120h1638v-409h-1638v-2048h1228v818h-819v410h1229v-1228q0 -170 -120 -290t-290 -120h-1228q-170 0 -290 120t-120 290z" />
<glyph unicode="H" d="M0 0v2867h410v-1229h818l206 -204l-206 -206h-818v-1228h-410zM1638 0v2867h410v-2867h-410z" />
<glyph unicode="I" horiz-adv-x="819" d="M0 0v2867h410v-2867h-410z" />
<glyph unicode="J" d="M0 0v410h1638v2048h-1638v409h2048v-2457q0 -170 -120 -290t-290 -120h-1638z" />
<glyph unicode="K" d="M0 0v2867h410v-2867h-410zM614 1434l205 204h819v1229h410v-1229h-2l-203 -204l205 -206v-1228h-410v1228h-819z" />
<glyph unicode="L" d="M0 0v2867h410v-2457h1638v-410h-2048z" />
<glyph unicode="M" horiz-adv-x="3276" d="M0 0v2867h1228v-1l206 -204l204 205h1229v-2867h-409v2458h-820v-1639h-410v1639h-818v-2458h-410z" />
<glyph unicode="N" d="M0 0v2867h1638q170 0 290 -120q120 -119 120 -289v-2458h-410v2458h-1228v-2458h-410z" />
<glyph unicode="O" d="M0 410v2048q0 170 120 289q120 120 290 120h1228q170 0 290 -120q120 -119 120 -289v-2048q0 -170 -120 -290t-290 -120h-1228q-170 0 -290 120t-120 290zM410 410h1228v2048h-1228v-2048z" />
<glyph unicode="P" d="M0 0v2867h1638q170 0 290 -120q120 -119 120 -289v-820q0 -170 -120 -290t-290 -120h-819l-205 206l205 204h819v820h-1228v-2458h-410z" />
<glyph unicode="Q" d="M0 410v2048q0 170 120 289q120 120 290 120h1228q170 0 290 -120q120 -119 120 -289v-2048q0 -170 -120 -290t-290 -120h-410v2l-204 202l-205 -204h-409q-170 0 -290 120t-120 290zM410 410h409v818h409v-818h410v2048h-1228v-2048z" />
<glyph unicode="R" d="M0 0v2867h1638q170 0 290 -120q120 -119 120 -289v-820h-2l-203 -204l205 -206v-1228h-410v1228h-819l-205 206l205 204h819v820h-1228v-2458h-410z" />
<glyph unicode="S" d="M0 0v410h1638v818h-1228q-170 0 -290 120t-120 290v1229h2048v-409h-1638v-820h1228q170 0 290 -120t120 -290v-1228h-2048z" />
<glyph unicode="T" d="M0 2458v409h2048v-409h-820v-2458h-409v2458h-819z" />
<glyph unicode="U" d="M0 410v2457h410v-2457h1228v2457h410v-2457q0 -170 -120 -290t-290 -120h-1228q-170 0 -290 120t-120 290z" />
<glyph unicode="V" d="M0 0v2867h410v-2457h1228v2457h410v-2457q0 -170 -120 -290t-290 -120h-1638z" />
<glyph unicode="W" horiz-adv-x="3276" d="M0 410v2457h410v-2457h818v818h410v-818h820v2457h409v-2457q0 -170 -120 -290q-119 -120 -289 -120h-820v2l-204 202l-206 -204h-818q-170 0 -290 120t-120 290z" />
<glyph unicode="X" d="M0 0v1228h2l202 206l-204 204v1229h410v-1229h1228v1229h410v-1229h-2l-203 -204l205 -206v-1228h-410v1228h-1228v-1228h-410z" />
<glyph unicode="Y" d="M0 1638v1229h410v-1229h1228v1229h410v-1229q0 -170 -120 -290t-290 -120h-410v-1228h-409v1228h-409q-170 0 -290 120t-120 290z" />
<glyph unicode="Z" d="M0 0v1228q0 170 120 290t290 120h1228v820h-1638v409h2048v-1229q0 -170 -120 -290t-290 -120h-1228v-818h1638v-410h-2048z" />
<glyph unicode="[" horiz-adv-x="1228" d="M0 0v2867h819v-409h-409v-2048h409v-410h-819z" />
<glyph unicode="\" horiz-adv-x="1638" d="M0 1638v820h410v-820h-410zM410 819v819h409v-819h-409zM819 0v819h409v-819h-409z" />
<glyph unicode="]" horiz-adv-x="1228" d="M0 0v410h410v2048h-410v409h819v-2867h-819z" />
<glyph unicode="^" d="M0 1638v410l819 819h409l820 -819v-410h-410l-410 410v2l-204 202l-614 -614h-410z" />
<glyph unicode="_" d="M0 0v410h2048v-410h-2048z" />
<glyph unicode="`" horiz-adv-x="819" d="M0 2458v409h410v-819q-170 0 -290 120t-120 290z" />
<glyph unicode="a" d="M0 0v1638q0 170 120 290t290 120h1228q170 0 290 -120t120 -290v-1638h-410v1638h-1228v-410h818l206 -204l-206 -205h-818v-819h-410z" />
<glyph unicode="b" d="M0 0v2048h1638q170 0 290 -120t120 -290v-410h-2l-203 -204l205 -205v-409q0 -170 -120 -290t-290 -120h-1638zM410 410h1228v1228h-1228v-410h818l206 -204l-206 -205h-818v-409z" />
<glyph unicode="c" d="M0 410v1228q0 170 120 290t290 120h1638v-410h-1638v-1228h1638v-410h-1638q-170 0 -290 120t-120 290z" />
<glyph unicode="d" d="M0 0v2048h1638q170 0 290 -120t120 -290v-1228q0 -170 -120 -290t-290 -120h-819l-205 204l205 206h819v1228h-1228v-1638h-410z" />
<glyph unicode="e" d="M0 0v2048h2048v-410h-1638v-1228h1638v-410h-2048zM614 1024l205 204h1229v-409h-1229z" />
<glyph unicode="f" d="M0 0v1638q0 170 120 290t290 120h1638v-410h-1638v-1638h-410zM614 1024l205 204h1229v-409h-1229z" />
<glyph unicode="g" d="M0 410v1228q0 170 120 290t290 120h1638v-410h-1638v-1228h1228v409h-819v409h1229v-818q0 -170 -120 -290t-290 -120h-1228q-170 0 -290 120t-120 290z" />
<glyph unicode="h" d="M0 0v2048h410v-820h818l206 -204l-206 -205h-818v-819h-410zM1638 0v2048h410v-2048h-410z" />
<glyph unicode="i" horiz-adv-x="819" d="M0 0v2048h410v-2048h-410z" />
<glyph unicode="j" d="M0 0v410h1638v1228h-1638v410h2048v-1638q0 -170 -120 -290t-290 -120h-1638z" />
<glyph unicode="k" d="M0 0v2048h410v-2048h-410zM614 1024l205 204h819v820h410v-820h-2l-203 -204l205 -205v-819h-410v819h-819z" />
<glyph unicode="l" d="M0 0v2048h410v-1638h1638v-410h-2048z" />
<glyph unicode="m" horiz-adv-x="3276" d="M0 0v2048h1228v-2l206 -203l204 205h1229v-2048h-409v1638h-820v-1228h-410v1228h-818v-1638h-410z" />
<glyph unicode="n" d="M0 0v2048h1638q170 0 290 -120t120 -290v-1638h-410v1638h-1228v-1638h-410z" />
<glyph unicode="o" d="M0 410v1228q0 170 120 290t290 120h1228q170 0 290 -120t120 -290v-1228q0 -170 -120 -290t-290 -120h-1228q-170 0 -290 120t-120 290zM410 410h1228v1228h-1228v-1228z" />
<glyph unicode="p" d="M0 0v2048h1638q170 0 290 -120t120 -290v-410q0 -170 -120 -289q-120 -120 -290 -120h-819l-205 205l205 204h819v410h-1228v-1638h-410z" />
<glyph unicode="q" d="M0 410v1228q0 170 120 290t290 120h1228q170 0 290 -120t120 -290v-1228q0 -170 -120 -290t-290 -120h-410v2l-204 202l-205 -204h-409q-170 0 -290 120t-120 290zM410 410h409v818h409v-818h410v1228h-1228v-1228z" />
<glyph unicode="r" d="M0 0v2048h1638q170 0 290 -120t120 -290v-410h-2l-203 -204l205 -205v-819h-410v819h-819l-205 205l205 204h819v410h-1228v-1638h-410z" />
<glyph unicode="s" d="M0 0v410h1638v409h-1228q-170 0 -290 120q-120 119 -120 289v820h2048v-410h-1638v-410h1228q170 0 290 -120t120 -289v-819h-2048z" />
<glyph unicode="t" d="M0 1638v410h2048v-410h-820v-1638h-409v1638h-819z" />
<glyph unicode="u" d="M0 410v1638h410v-1638h1228v1638h410v-1638q0 -170 -120 -290t-290 -120h-1228q-170 0 -290 120t-120 290z" />
<glyph unicode="v" d="M0 0v2048h410v-1638h1228v1638h410v-1638q0 -170 -120 -290t-290 -120h-1638z" />
<glyph unicode="w" horiz-adv-x="3276" d="M0 410v1638h410v-1638h818v818h410v-818h820v1638h409v-1638q0 -170 -120 -290q-119 -120 -289 -120h-820v2l-204 202l-206 -204h-818q-170 0 -290 120t-120 290z" />
<glyph unicode="x" d="M0 0v819h2l202 205l-204 204v820h410v-820h1228v820h410v-820h-2l-203 -204l205 -205v-819h-410v819h-1228v-819h-410z" />
<glyph unicode="y" d="M0 1228v820h410v-820h1228v820h410v-820q0 -170 -120 -289q-120 -120 -290 -120h-410v-819h-409v819h-409q-170 0 -290 120q-120 119 -120 289z" />
<glyph unicode="z" d="M0 0v819q0 169 120 289t290 120h1228v410h-1638v410h2048v-820q0 -170 -120 -289q-120 -120 -290 -120h-1228v-409h1638v-410h-2048z" />
<glyph unicode="{" horiz-adv-x="1228" d="M-204 1434l204 204v820q0 170 120 289q120 120 290 120h409v-409h-409v-820h-2l-204 -204l206 -206v-818h409v-410h-409q-170 0 -290 120t-120 290v818z" />
<glyph unicode="|" horiz-adv-x="819" d="M0 0v2867h410v-2867h-410z" />
<glyph unicode="}" horiz-adv-x="1638" d="M0 0v410h410v818h1l203 206l-204 204v820h-410v409h410q170 0 289 -120q120 -119 120 -289v-820l205 -204l-205 -206v-818q0 -170 -120 -290q-119 -120 -289 -120h-410z" />
<glyph unicode="~" d="M0 1228v410q0 170 120 290t290 120h409q169 0 289 -120t120 -290h410v410h410v-410q0 -170 -120 -290t-290 -120h-410q-170 0 -289 120q-120 120 -120 290h-409v-410h-410z" />
<glyph unicode="&#xad;" d="M0 819v409h2048v-409h-2048z" />
<glyph unicode="&#x2000;" horiz-adv-x="1433" />
<glyph unicode="&#x2001;" horiz-adv-x="2867" />
<glyph unicode="&#x2002;" horiz-adv-x="1433" />
<glyph unicode="&#x2003;" horiz-adv-x="2867" />
<glyph unicode="&#x2004;" horiz-adv-x="955" />
<glyph unicode="&#x2005;" horiz-adv-x="716" />
<glyph unicode="&#x2006;" horiz-adv-x="477" />
<glyph unicode="&#x2007;" horiz-adv-x="477" />
<glyph unicode="&#x2008;" horiz-adv-x="358" />
<glyph unicode="&#x2009;" horiz-adv-x="573" />
<glyph unicode="&#x200a;" horiz-adv-x="159" />
<glyph unicode="&#x2010;" d="M0 819v409h2048v-409h-2048z" />
<glyph unicode="&#x2011;" d="M0 819v409h2048v-409h-2048z" />
<glyph unicode="&#x2012;" d="M0 819v409h2048v-409h-2048z" />
<glyph unicode="&#x2013;" horiz-adv-x="1433" d="M0 819v409h1024v-409h-1024z" />
<glyph unicode="&#x2014;" d="M0 819v409h2048v-409h-2048z" />
<glyph unicode="&#x2018;" horiz-adv-x="819" d="M0 2048v410q0 170 120 289q120 120 290 120v-819h-410z" />
<glyph unicode="&#x2019;" horiz-adv-x="819" d="M0 2048v819h410v-409q0 -170 -120 -290t-290 -120z" />
<glyph unicode="&#x201c;" horiz-adv-x="1638" d="M0 2048v410q0 170 120 289q120 120 290 120v-819h-410zM819 2048v410q0 170 120 289q119 120 289 120v-819h-409z" />
<glyph unicode="&#x201d;" horiz-adv-x="1638" d="M0 2048v819h410v-409q0 -170 -120 -290t-290 -120zM819 2048v819h409v-409q0 -170 -120 -290t-289 -120z" />
<glyph unicode="&#x202f;" horiz-adv-x="573" />
<glyph unicode="&#x205f;" horiz-adv-x="716" />
<glyph unicode="&#x20ac;" d="M-410 819v205h410v410h-410v204h410v410q0 170 120 290t290 120h1228q170 0 290 -120t120 -290v-410h-410v410h-1228v-410h818v-204h-818v-410h818v-205h-818v-409h1228v409h410v-409q0 -170 -120 -290t-290 -120h-1228q-170 0 -290 120t-120 290v409h-410z" />
<glyph unicode="&#x25fc;" horiz-adv-x="2047" d="M0 0v2048h2048v-2048h-2048z" />
</font>
</defs>
</svg>
